# xmcd
#
# Track frame offsets:
#	150
#	18142
#	35886
#	47485
#	66410
#	81231
#	102382
#	122905
#	135979
#	155974
#	167671
#	182252
#	198777
#
# Disc length: 2812 seconds
# Revision: 1
# Processed by: cddbd v1.5.2PL0 Copyright (c) Steve Scherf et al.
# Submitted via: dBpowerAMP V12.0
#
DISCID=ab0afa0d
DTITLE=James Michael - Beyond The Divide
DYEAR=2012
DGENRE=Country
TTITLE0=Blue Mountain
TTITLE1=Frank - The Story
TTITLE2=Frank - The Song
TTITLE3=Rodeo Cowboy
TTITLE4=Rocky Raccoon
TTITLE5=Old Peloncillos
TTITLE6=Beyond The Divide
TTITLE7=Life and Poker
TTITLE8=Serenade Of The Bells
TTITLE9=Hour Before Dawn
TTITLE10=Moonshine Steer
TTITLE11=Wandering
TTITLE12=My Cathedral
EXTD=
EXTT0=
EXTT1=
EXTT2=
EXTT3=
EXTT4=
EXTT5=
EXTT6=
EXTT7=
EXTT8=
EXTT9=
EXTT10=
EXTT11=
EXTT12=
PLAYORDER=
